<?xml version="1.0" standalone="no"?><!DOCTYPE svg PUBLIC "-//W3C//DTD SVG 1.1//EN" "http://www.w3.org/Graphics/SVG/1.1/DTD/svg11.dtd"><svg t="1757783690335" class="icon" viewBox="0 0 1024 1024" version="1.1" xmlns="http://www.w3.org/2000/svg" p-id="30899" xmlns:xlink="http://www.w3.org/1999/xlink" width="200" height="200"><path d="M238.933333 153.6h546.133334a85.333333 85.333333 0 0 1 85.333333 85.333333v546.133334a85.333333 85.333333 0 0 1-85.333333 85.333333H238.933333a85.333333 85.333333 0 0 1-85.333333-85.333333V238.933333a85.333333 85.333333 0 0 1 85.333333-85.333333z" fill="#000000" p-id="30900"></path><path d="M238.933333 187.733333a51.2 51.2 0 0 0-51.2 51.2v546.133334a51.2 51.2 0 0 0 51.2 51.2h546.133334a51.2 51.2 0 0 0 51.2-51.2V238.933333a51.2 51.2 0 0 0-51.2-51.2H238.933333z" fill="#B7263F" p-id="30901"></path><path d="M512 768c150.818133 0 273.066667-122.248533 273.066667-273.066667s-122.248533-273.066667-273.066667-273.066666-273.066667 122.248533-273.066667 273.066666 122.248533 273.066667 273.066667 273.066667z" fill="#000000" p-id="30902"></path><path d="M512 733.866667c-131.959467 0-238.933333-106.973867-238.933333-238.933334s106.973867-238.933333 238.933333-238.933333 238.933333 106.973867 238.933333 238.933333-106.973867 238.933333-238.933333 238.933334z" fill="#EBEFFA" p-id="30903"></path><path d="M512 716.8c122.538667 0 221.866667-99.328 221.866667-221.866667s-99.328-221.866667-221.866667-221.866666-221.866667 99.328-221.866667 221.866666 99.328 221.866667 221.866667 221.866667z" fill="#000000" p-id="30904"></path><path d="M512 648.533333a153.6 153.6 0 1 1 0-307.2 153.6 153.6 0 0 1 0 307.2z" fill="#FAB61A" p-id="30905"></path><path d="M512 631.466667a136.533333 136.533333 0 1 0 0-273.066667 136.533333 136.533333 0 0 0 0 273.066667z m0-34.133334a102.4 102.4 0 1 1 0-204.8 102.4 102.4 0 0 1 0 204.8z" fill="#000000" p-id="30906"></path><path d="M512 571.733333a76.8 76.8 0 1 0 0-153.6 76.8 76.8 0 0 0 0 153.6z" fill="#000000" p-id="30907"></path><path d="M512 520.533333a25.6 25.6 0 1 1 0-51.2 25.6 25.6 0 0 1 0 51.2z" fill="#EBEFFA" p-id="30908"></path><path d="M256 819.2a51.2 51.2 0 1 0 0-102.4 51.2 51.2 0 0 0 0 102.4z m0-34.133333a17.066667 17.066667 0 1 1 0-34.133334 17.066667 17.066667 0 0 1 0 34.133334zM768 819.2a51.2 51.2 0 1 0 0-102.4 51.2 51.2 0 0 0 0 102.4z m0-34.133333a17.066667 17.066667 0 1 1 0-34.133334 17.066667 17.066667 0 0 1 0 34.133334zM793.6 256a25.6 25.6 0 0 1 25.6 25.6v51.2a25.6 25.6 0 0 1-51.2 0v-51.2a25.6 25.6 0 0 1 25.6-25.6z m0 34.133333a8.533333 8.533333 0 0 0 8.533333-8.533333v51.2a8.533333 8.533333 0 1 0-17.066666 0v-51.2a8.533333 8.533333 0 0 0 8.533333 8.533333z" fill="#000000" p-id="30909"></path><path d="M776.533333 307.2a42.666667 42.666667 0 1 0 0-85.333333 42.666667 42.666667 0 0 0 0 85.333333z m0-34.133333a8.533333 8.533333 0 1 1 0-17.066667 8.533333 8.533333 0 0 1 0 17.066667zM247.466667 733.866667v34.133333a8.533333 8.533333 0 1 0 17.066666 0v-34.133333a8.533333 8.533333 0 1 0-17.066666 0zM759.466667 733.866667v34.133333a8.533333 8.533333 0 1 0 17.066666 0v-34.133333a8.533333 8.533333 0 1 0-17.066666 0z" fill="#000000" p-id="30910"></path><path d="M780.9024 310.5792l-179.2 102.4a25.6 25.6 0 1 0 25.3952 44.4416l179.2-102.4a25.6 25.6 0 1 0-25.3952-44.4416z" fill="#000000" p-id="30911"></path><path d="M609.8944 427.946667l-68.266667 42.359466a8.533333 8.533333 0 0 0 9.0112 14.506667l68.266667-42.359467a8.533333 8.533333 0 0 0-9.0112-14.506666z" fill="#000000" p-id="30912"></path><path d="M443.733333 802.133333m-17.066666 0a17.066667 17.066667 0 1 0 34.133333 0 17.066667 17.066667 0 1 0-34.133333 0Z" fill="#000000" p-id="30913"></path><path d="M512 802.133333m-17.066667 0a17.066667 17.066667 0 1 0 34.133334 0 17.066667 17.066667 0 1 0-34.133334 0Z" fill="#000000" p-id="30914"></path><path d="M580.266667 802.133333m-17.066667 0a17.066667 17.066667 0 1 0 34.133333 0 17.066667 17.066667 0 1 0-34.133333 0Z" fill="#000000" p-id="30915"></path></svg>