<?xml version="1.0" encoding="UTF-8" standalone="no"?>
<svg
   t="1757783690335"
   class="icon"
   viewBox="0 0 716.8 716.8"
   version="1.1"
   p-id="30899"
   width="140"
   height="140"
   id="svg16"
   sodipodi:docname="cover.svg"
   xmlns:inkscape="http://www.inkscape.org/namespaces/inkscape"
   xmlns:sodipodi="http://sodipodi.sourceforge.net/DTD/sodipodi-0.dtd"
   xmlns="http://www.w3.org/2000/svg"
   xmlns:svg="http://www.w3.org/2000/svg">
  <defs
     id="defs16" />
  <sodipodi:namedview
     id="namedview16"
     pagecolor="#ffffff"
     bordercolor="#000000"
     borderopacity="0.25"
     inkscape:showpageshadow="2"
     inkscape:pageopacity="0.0"
     inkscape:pagecheckerboard="0"
     inkscape:deskcolor="#d1d1d1" />
  <path
     d="M 85.33333,0 H 631.46667 A 85.333333,85.333333 0 0 1 716.8,85.33333 V 631.46667 A 85.333333,85.333333 0 0 1 631.46667,716.8 H 85.33333 A 85.333333,85.333333 0 0 1 0,631.46667 V 85.33333 A 85.333333,85.333333 0 0 1 85.33333,0 Z"
     fill="#000000"
     p-id="30900"
     id="path1" />
  <path
     d="m 85.33333,34.13333 a 51.2,51.2 0 0 0 -51.2,51.2 v 546.13334 a 51.2,51.2 0 0 0 51.2,51.2 h 546.13334 a 51.2,51.2 0 0 0 51.2,-51.2 V 85.33333 a 51.2,51.2 0 0 0 -51.2,-51.2 z"
     fill="#b7263f"
     p-id="30901"
     id="path2" />
  <path
     d="M 358.4,614.4 C 509.21813,614.4 631.46667,492.15147 631.46667,341.33333 631.46667,190.5152 509.21813,68.26667 358.4,68.26667 207.58187,68.26667 85.33333,190.5152 85.33333,341.33333 85.33333,492.15147 207.58187,614.4 358.4,614.4 Z"
     fill="#000000"
     p-id="30902"
     id="path3" />
  <path
     d="M 358.4,580.26667 C 226.44053,580.26667 119.46667,473.2928 119.46667,341.33333 119.46667,209.37387 226.44053,102.4 358.4,102.4 c 131.95947,0 238.93333,106.97387 238.93333,238.93333 0,131.95947 -106.97386,238.93334 -238.93333,238.93334 z"
     fill="#ebeffa"
     p-id="30903"
     id="path4" />
  <path
     d="m 358.4,563.2 c 122.53867,0 221.86667,-99.328 221.86667,-221.86667 0,-122.53866 -99.328,-221.86666 -221.86667,-221.86666 -122.53867,0 -221.86667,99.328 -221.86667,221.86666 C 136.53333,463.872 235.86133,563.2 358.4,563.2 Z"
     fill="#000000"
     p-id="30904"
     id="path5" />
  <path
     d="m 358.4,494.93333 a 153.6,153.6 0 1 1 0,-307.2 153.6,153.6 0 0 1 0,307.2 z"
     fill="#fab61a"
     p-id="30905"
     id="path6" />
  <path
     d="m 358.4,477.86667 a 136.53334,136.53334 0 1 0 0,-273.06667 136.53334,136.53334 0 0 0 0,273.06667 z m 0,-34.13334 a 102.4,102.4 0 1 1 0,-204.8 102.4,102.4 0 0 1 0,204.8 z"
     fill="#000000"
     p-id="30906"
     id="path7" />
  <path
     d="m 358.4,418.13333 a 76.8,76.8 0 1 0 0,-153.6 76.8,76.8 0 0 0 0,153.6 z"
     fill="#000000"
     p-id="30907"
     id="path8" />
  <path
     d="m 358.4,366.93333 a 25.6,25.6 0 1 1 0,-51.2 25.6,25.6 0 0 1 0,51.2 z"
     fill="#ebeffa"
     p-id="30908"
     id="path9" />
  <path
     d="m 102.4,665.6 a 51.2,51.2 0 1 0 0,-102.4 51.2,51.2 0 0 0 0,102.4 z m 0,-34.13333 a 17.06667,17.06667 0 1 1 0,-34.13334 17.06667,17.06667 0 0 1 0,34.13334 z M 614.4,665.6 a 51.2,51.2 0 1 0 0,-102.4 51.2,51.2 0 0 0 0,102.4 z m 0,-34.13333 a 17.06667,17.06667 0 1 1 0,-34.13334 17.06667,17.06667 0 0 1 0,34.13334 z M 640,102.4 a 25.6,25.6 0 0 1 25.6,25.6 v 51.2 a 25.6,25.6 0 0 1 -51.2,0 V 128 A 25.6,25.6 0 0 1 640,102.4 Z m 0,34.13333 A 8.533333,8.533333 0 0 0 648.53333,128 v 51.2 a 8.533333,8.533333 0 1 0 -17.06666,0 V 128 A 8.533333,8.533333 0 0 0 640,136.53333 Z"
     fill="#000000"
     p-id="30909"
     id="path10" />
  <path
     d="m 622.93333,153.6 a 42.666667,42.666667 0 1 0 0,-85.33333 42.666667,42.666667 0 0 0 0,85.33333 z m 0,-34.13333 a 8.533335,8.533335 0 1 1 0,-17.06667 8.533335,8.533335 0 0 1 0,17.06667 z m -529.06666,460.8 V 614.4 a 8.533333,8.533333 0 1 0 17.06666,0 v -34.13333 a 8.533333,8.533333 0 1 0 -17.06666,0 z m 512,0 V 614.4 a 8.533333,8.533333 0 1 0 17.06666,0 v -34.13333 a 8.533333,8.533333 0 1 0 -17.06666,0 z"
     fill="#000000"
     p-id="30910"
     id="path11" />
  <path
     d="m 627.3024,156.9792 -179.2,102.4 a 25.6,25.6 0 1 0 25.3952,44.4416 l 179.2,-102.4 a 25.6,25.6 0 1 0 -25.3952,-44.4416 z"
     fill="#000000"
     p-id="30911"
     id="path12" />
  <path
     d="m 456.2944,274.34667 -68.26667,42.35946 a 8.5388114,8.5388114 0 0 0 9.0112,14.50667 l 68.26667,-42.35947 a 8.5388097,8.5388097 0 0 0 -9.0112,-14.50666 z"
     fill="#000000"
     p-id="30912"
     id="path13" />
  <path
     d="m 290.13333,648.53333 m -17.06666,0 a 17.066667,17.066667 0 1 0 34.13333,0 17.066667,17.066667 0 1 0 -34.13333,0 z"
     fill="#000000"
     p-id="30913"
     id="path14" />
  <path
     d="m 358.4,648.53333 m -17.06667,0 a 17.06667,17.06667 0 1 0 34.13334,0 17.06667,17.06667 0 1 0 -34.13334,0 z"
     fill="#000000"
     p-id="30914"
     id="path15" />
  <path
     d="m 426.66667,648.53333 m -17.06667,0 a 17.066667,17.066667 0 1 0 34.13333,0 17.066667,17.066667 0 1 0 -34.13333,0 z"
     fill="#000000"
     p-id="30915"
     id="path16" />
</svg>
